<?xml version="1.0" standalone="no"?><!DOCTYPE svg PUBLIC "-//W3C//DTD SVG 1.1//EN" "http://www.w3.org/Graphics/SVG/1.1/DTD/svg11.dtd"><svg t="1605597959116" class="icon" viewBox="0 0 1024 1024" version="1.1" xmlns="http://www.w3.org/2000/svg" p-id="3199" xmlns:xlink="http://www.w3.org/1999/xlink" width="200" height="200"><defs><style type="text/css"></style></defs><path d="M944.65856111 670.09660503L746.71854664 868.0366195c-32.43662147 32.43662147-70.49218566 23.49739522-104.20584056 15.8352017-2.04325151-0.51081252-4.34190999-0.76621949-6.64056777-1.02162576-3.06487727-0.51081323-5.61894272-1.02162576-7.9176012-1.27703273L398.0887144 836.62162379c-48.7826364-9.45003948-80.9638516-56.95564315-71.25840515-105.99368511 3.32028424-17.62304624 12.00410423-33.45824723 24.77442724-46.22857165 14.81357523-14.81357523 34.22446743-24.00820845 54.65698467-26.05145926L160.30528979 412.3914764c-35.24609318-35.24609318-36.5231252-91.18011058-3.06487727-124.6383571 33.45824793-33.45824793 89.39226462-32.18121521 124.6383571 3.06487727l87.60441937 87.60441937c3.06487727-12.77032372 9.19463251-24.51902098 18.6446727-33.96906116 18.6446727-18.6446727 45.46235216-25.02983421 72.02462465-18.90007826 1.53243899-17.8784525 8.42841373-34.47987369 20.68792421-46.73938417 22.2203632-22.2203632 57.46645638-26.81767946 88.37063886-13.28113695 3.5756905-10.21625898 9.19463251-19.41089149 16.85682675-27.07308572 30.90418319-30.90418319 84.5395421-27.32849269 119.78563458 7.9176012l192.83188498 192.83188498c70.2367794 69.72596687 85.56116786 191.2994467 45.97316539 230.88744917m-568.27939738 39.58800318c-7.66219423 7.66219423-12.77032301 17.36763998-14.81357453 27.58389895-5.87434827 29.3717442 13.28113624 57.72186265 42.65288045 63.59621092l229.8658227 44.95153893c2.04325151 0.51081252 4.34190999 0.76621949 6.89597545 1.27703202 2.55406474 0.51081323 5.10812949 1.02162646 7.40678726 1.27703272l0.7662195 0.25540697c36.5231252 8.42841373 54.4015777 10.47166524 71.00299889-6.12975595l197.94001447-197.94001447c21.70954997-21.70954997 13.79194877-120.55185407-45.46235146-179.80615571l-192.83188498-192.83188498c-20.68792421-20.68792421-52.35832619-24.26361471-68.70434041-7.91760049-7.40678797 7.40678797-10.98247847 18.13385947-10.47166594 30.39336995l2.55406474 42.90828671-32.43662147-27.83930451c-20.94333048-17.8784525-49.54885518-19.92170472-65.12864991-4.34190999-10.21625898 10.21625898-13.28113624 27.07308572-7.66219493 43.92991246l16.60142118 49.29344822-43.6745062-28.35011774c-20.17711098-13.02572998-44.69613196-13.02572998-58.23267517 0.51081323-11.23788473 11.23788473-13.53654251 30.39336996-5.87434969 48.78263569l36.77853217 85.81657412L255.57190339 317.1248628c-21.19873674-21.19873674-54.14617144-22.47576946-73.55706363-3.06487727-19.41089149 19.41089149-18.13385947 52.3583269 3.06487797 73.55706293l323.855405 323.855405L425.16180012 694.61562671c-17.62304624-3.32028424-35.75690571 2.04325222-48.78263639 15.0689815" fill="#1296db" p-id="3200"></path><path d="M355.94664648 415.9671669l25.54064673-25.54064673 89.13685836 89.13685836-25.54064673 25.54064673zM453.51191857 349.05067174l25.54064673-25.54064673 89.13685836 89.13685836-25.54064673 25.54064673zM557.71775842 293.88287384l25.54064673-25.54064673 89.13685836 89.13685836-25.54064673 25.54064673z" fill="#1296db" p-id="3201"></path></svg>